<?xml version="1.0" encoding="utf-8"?>
<!-- Generator: Adobe Illustrator 21.1.0, SVG Export Plug-In . SVG Version: 6.00 Build 0)  -->
<svg version="1.1" id="Layer_1" xmlns="http://www.w3.org/2000/svg" xmlns:xlink="http://www.w3.org/1999/xlink" x="0px" y="0px" viewBox="0 0 1080 1080" style="enable-background:new 0 0 1080 1080;" xml:space="preserve">
    <style type="text/css">
    .st0 {
        fill: #AAAAAA;
    }
    </style>
    <g id="dial">
        <g>
            <polygon class="st0" points="195,213.3 276.4,293.2 289.2,280.3 207.8,200.3 		" />
            <g>
                <path class="st0" d="M191.4,216.8c23.8,23.3,47.5,46.7,71.3,70c3.4,3.3,6.8,6.7,10.2,10c1.9,1.9,5.2,1.9,7.1,0
				c4.3-4.3,8.5-8.6,12.8-13c1.9-1.9,1.9-5.2,0-7.1c-23.8-23.3-47.5-46.7-71.3-70c-3.4-3.3-6.8-6.7-10.2-10c-1.9-1.9-5.2-1.9-7.1,0
				c-4.3,4.3-8.5,8.6-12.8,13c-4.5,4.6,2.5,11.7,7.1,7.1c4.3-4.3,8.5-8.6,12.8-13c-2.4,0-4.7,0-7.1,0c23.8,23.3,47.5,46.7,71.3,70
				c3.4,3.3,6.8,6.7,10.2,10c0-2.4,0-4.7,0-7.1c-4.3,4.3-8.5,8.6-12.8,13c2.4,0,4.7,0,7.1,0c-23.8-23.3-47.5-46.7-71.3-70
				c-3.4-3.3-6.8-6.7-10.2-10C193.9,205.2,186.8,212.3,191.4,216.8z" />
            </g>
        </g>
        <g>
            <rect x="206.1" y="296.4" transform="matrix(0.551 -0.8345 0.8345 0.551 -174.4977 325.4975)" class="st0" width="18.3" height="57.1" />
            <g>
                <path class="st0" d="M236.6,343.9c-15.9-10.5-31.8-21-47.7-31.5c0.6,2.3,1.2,4.6,1.8,6.8c3.4-5.1,6.7-10.2,10.1-15.2
				c-2.3,0.6-4.6,1.2-6.8,1.8c15.9,10.5,31.8,21,47.7,31.5c-0.6-2.3-1.2-4.6-1.8-6.8c-3.4,5.1-6.7,10.2-10.1,15.2
				c-3.6,5.4,5.1,10.4,8.6,5c3.4-5.1,6.7-10.2,10.1-15.2c1.5-2.3,0.4-5.4-1.8-6.8c-15.9-10.5-31.8-21-47.7-31.5
				c-2.3-1.5-5.4-0.4-6.8,1.8c-3.4,5.1-6.7,10.2-10.1,15.2c-1.5,2.3-0.4,5.4,1.8,6.8c15.9,10.5,31.8,21,47.7,31.5
				C236.9,356.1,241.9,347.5,236.6,343.9z" />
            </g>
        </g>
        <g>
            <rect x="376.6" y="122.3" transform="matrix(0.9238 -0.3829 0.3829 0.9238 -34.163 160.3407)" class="st0" width="18.2" height="87.3" />
            <g>
                <path class="st0" d="M398.8,208.4c-9.7-23.5-19.5-47-29.2-70.5c-1.4-3.4-2.8-6.7-4.2-10.1c-1.2,2.1-2.3,4.1-3.5,6.2
				c5.6-2.3,11.2-4.7,16.9-7c-2.1-1.2-4.1-2.3-6.2-3.5c9.7,23.5,19.5,47,29.2,70.5c1.4,3.4,2.8,6.7,4.2,10.1
				c1.2-2.1,2.3-4.1,3.5-6.2c-5.6,2.3-11.2,4.7-16.9,7c-5.9,2.4-3.3,12.1,2.7,9.6c5.6-2.3,11.2-4.7,16.9-7c2.2-0.9,4.6-3.4,3.5-6.2
				c-9.7-23.5-19.5-47-29.2-70.5c-1.4-3.4-2.8-6.7-4.2-10.1c-0.9-2.2-3.4-4.6-6.2-3.5c-5.6,2.3-11.2,4.7-16.9,7
				c-2.2,0.9-4.6,3.4-3.5,6.2c9.7,23.5,19.5,47,29.2,70.5c1.4,3.4,2.8,6.7,4.2,10.1C391.6,216.9,401.3,214.3,398.8,208.4z" />
            </g>
        </g>
        <g>
            <polygon class="st0" points="448.6,131.9 460,187.8 478,184.1 466.5,128.1 		" />
            <g>
                <path class="st0" d="M443.8,133.2c3.8,18.7,7.6,37.3,11.4,56c0.6,2.8,3.7,4,6.2,3.5c6-1.2,12-2.5,18-3.7c2.8-0.6,4-3.6,3.5-6.2
				c-3.8-18.6-7.7-37.3-11.5-55.9c-0.6-2.8-3.6-4-6.2-3.5c-5.9,1.2-11.9,2.5-17.8,3.7c-6.3,1.3-3.6,11,2.7,9.6
				c5.9-1.2,11.9-2.5,17.8-3.7c-2.1-1.2-4.1-2.3-6.2-3.5c3.8,18.6,7.7,37.3,11.5,55.9c1.2-2.1,2.3-4.1,3.5-6.2c-6,1.2-12,2.5-18,3.7
				c2.1,1.2,4.1,2.3,6.2,3.5c-3.8-18.7-7.6-37.3-11.4-56C452.2,124.2,442.5,126.9,443.8,133.2z" />
            </g>
        </g>
        <g>
            <polygon class="st0" points="195.8,188.5 183.9,176.8 171.1,189.9 183,201.6 		" />
            <g>
                <path class="st0" d="M199.3,184.9c-3.9-3.9-7.9-7.8-11.8-11.7c-1.9-1.9-5.2-1.9-7.1,0c-4.3,4.4-8.5,8.8-12.8,13.1
				c-1.9,1.9-1.9,5.2,0,7.1c3.9,3.9,7.9,7.8,11.8,11.7c1.9,1.9,5.2,1.9,7.1,0c4.3-4.4,8.5-8.8,12.8-13.1c4.5-4.6-2.6-11.7-7.1-7.1
				c-4.3,4.4-8.5,8.8-12.8,13.1c2.4,0,4.7,0,7.1,0c-3.9-3.9-7.9-7.8-11.8-11.7c0,2.4,0,4.7,0,7.1c4.3-4.4,8.5-8.8,12.8-13.1
				c-2.4,0-4.7,0-7.1,0c3.9,3.9,7.9,7.8,11.8,11.7C196.8,196.5,203.9,189.5,199.3,184.9z" />
            </g>
        </g>
        <g>
            <rect x="890.3" y="180" transform="matrix(0.7156 -0.6985 0.6985 0.7156 123.399 681.518)" class="st0" width="16.7" height="18.4" />
            <g>
                <path class="st0" d="M894.7,180.3c4.3,4.4,8.5,8.8,12.8,13.1c0-2.4,0-4.7,0-7.1c-4,3.9-8,7.8-12,11.7c2.4,0,4.7,0,7.1,0
				c-4.3-4.4-8.5-8.8-12.8-13.1c0,2.4,0,4.7,0,7.1c4-3.9,8-7.8,12-11.7c4.6-4.5-2.5-11.6-7.1-7.1c-4,3.9-8,7.8-12,11.7
				c-1.9,1.9-1.9,5.2,0,7.1c4.3,4.4,8.5,8.8,12.8,13.1c1.9,1.9,5.2,1.9,7.1,0c4-3.9,8-7.8,12-11.7c1.9-1.9,1.9-5.2,0-7.1
				c-4.3-4.4-8.5-8.8-12.8-13.1C897.2,168.6,890.2,175.7,894.7,180.3z" />
            </g>
        </g>
        <g>
            <polygon class="st0" points="121.3,379.2 202.1,412.1 209.1,395.3 128.3,362.3 		" />
            <g>
                <path class="st0" d="M120,384c23.5,9.6,47.1,19.2,70.6,28.8c3.4,1.4,6.7,2.8,10.1,4.1c2.7,1.1,5.2-1.2,6.2-3.5
				c2.3-5.6,4.7-11.2,7-16.9c1.1-2.7-1.3-5.2-3.5-6.2c-23.5-9.6-47.1-19.2-70.6-28.8c-3.4-1.4-6.7-2.8-10.1-4.1
				c-2.7-1.1-5.2,1.2-6.2,3.5c-2.3,5.6-4.7,11.2-7,16.9c-2.5,5.9,7.2,8.5,9.6,2.7c2.3-5.6,4.7-11.2,7-16.9c-2.1,1.2-4.1,2.3-6.2,3.5
				c23.5,9.6,47.1,19.2,70.6,28.8c3.4,1.4,6.7,2.8,10.1,4.1c-1.2-2.1-2.3-4.1-3.5-6.2c-2.3,5.6-4.7,11.2-7,16.9
				c2.1-1.2,4.1-2.3,6.2-3.5c-23.5-9.6-47.1-19.2-70.6-28.8c-3.4-1.4-6.7-2.8-10.1-4.1C116.7,371.9,114.1,381.6,120,384z" />
            </g>
        </g>
        <g>
            <polygon class="st0" points="127.5,470.3 183.4,481.1 187,463.1 130.9,452.3 		" />
            <g>
                <path class="st0" d="M126.2,475.2c18.6,3.6,37.3,7.1,55.9,10.7c2.5,0.5,5.6-0.7,6.2-3.5c1.2-6,2.4-12,3.6-18
				c0.5-2.5-0.7-5.6-3.5-6.2c-18.7-3.6-37.4-7.1-56.1-10.7c-2.5-0.5-5.6,0.7-6.2,3.5c-1.1,6-2.3,12-3.4,18c-1.2,6.3,8.4,9,9.6,2.7
				c1.1-6,2.3-12,3.4-18c-2.1,1.2-4.1,2.3-6.2,3.5c18.7,3.6,37.4,7.1,56.1,10.7c-1.2-2.1-2.3-4.1-3.5-6.2c-1.2,6-2.4,12-3.6,18
				c2.1-1.2,4.1-2.3,6.2-3.5c-18.6-3.6-37.3-7.1-55.9-10.7C122.5,464.3,119.8,474,126.2,475.2z" />
            </g>
        </g>
        <g>
            <polygon class="st0" points="298.8,198.5 330.7,245.7 345.8,235.5 313.9,188.1 		" />
            <g>
                <path class="st0" d="M294.5,201c10.6,15.7,21.3,31.5,31.9,47.2c1.4,2.1,4.5,3.4,6.8,1.8c5-3.4,10.1-6.8,15.1-10.2
				c2.1-1.4,3.4-4.5,1.8-6.8c-10.7-15.8-21.3-31.6-32-47.4c-1.4-2.1-4.5-3.4-6.8-1.8c-5,3.5-10.1,6.9-15.1,10.4
				c-5.3,3.6-0.3,12.3,5,8.6c5-3.5,10.1-6.9,15.1-10.4c-2.3-0.6-4.6-1.2-6.8-1.8c10.7,15.8,21.3,31.6,32,47.4
				c0.6-2.3,1.2-4.6,1.8-6.8c-5,3.4-10.1,6.8-15.1,10.2c2.3,0.6,4.6,1.2,6.8,1.8c-10.6-15.7-21.3-31.5-31.9-47.2
				C299.5,190.7,290.8,195.7,294.5,201z" />
            </g>
        </g>
        <g>
            <polygon class="st0" points="885.6,301.5 837.9,333 848.1,348.2 895.7,316.7 		" />
            <g>
                <path class="st0" d="M883.1,297.2c-15.9,10.5-31.8,21-47.7,31.5c-2.1,1.4-3.4,4.5-1.8,6.8c3.4,5.1,6.8,10.2,10.2,15.2
				c1.4,2.1,4.5,3.4,6.8,1.8c15.8-10.5,31.7-21,47.5-31.5c2.2-1.4,3.4-4.5,1.8-6.8c-3.4-5.1-6.7-10.2-10.1-15.2
				c-3.5-5.3-12.2-0.3-8.6,5c3.4,5.1,6.7,10.2,10.1,15.2c0.6-2.3,1.2-4.6,1.8-6.8c-15.8,10.5-31.7,21-47.5,31.5
				c2.3,0.6,4.6,1.2,6.8,1.8c-3.4-5.1-6.8-10.2-10.2-15.2c-0.6,2.3-1.2,4.6-1.8,6.8c15.9-10.5,31.8-21,47.7-31.5
				C893.5,302.3,888.5,293.6,883.1,297.2z" />
            </g>
        </g>
        <g>
            <polygon class="st0" points="953.7,362.3 872.9,395.3 879.9,412.1 960.7,379.2 		" />
            <g>
                <path class="st0" d="M952.4,357.5c-23.6,9.6-47.1,19.2-70.7,28.8c-3.4,1.4-6.7,2.8-10.1,4.1c-2.3,0.9-4.6,3.4-3.5,6.2
				c2.3,5.6,4.7,11.2,7,16.9c0.9,2.3,3.4,4.6,6.2,3.5c23.5-9.6,47.1-19.2,70.6-28.8c3.4-1.4,6.7-2.8,10.1-4.1
				c2.3-0.9,4.6-3.4,3.5-6.2c-2.3-5.6-4.6-11.2-7-16.9c-2.4-5.9-12.1-3.3-9.6,2.7c2.3,5.6,4.6,11.2,7,16.9c1.2-2.1,2.3-4.1,3.5-6.2
				c-23.5,9.6-47.1,19.2-70.6,28.8c-3.4,1.4-6.7,2.8-10.1,4.1c2.1,1.2,4.1,2.3,6.2,3.5c-2.3-5.6-4.7-11.2-7-16.9
				c-1.2,2.1-2.3,4.1-3.5,6.2c23.6-9.6,47.1-19.2,70.7-28.8c3.4-1.4,6.7-2.8,10.1-4.1C960.9,364.7,958.4,355.1,952.4,357.5z" />
            </g>
        </g>
        <g>
            <polygon class="st0" points="895.2,463.1 898.6,481.1 954.5,470.3 951.1,452.3 		" />
            <g>
                <path class="st0" d="M890.3,464.4c1.1,6,2.3,12,3.4,18c0.5,2.8,3.7,4,6.2,3.5c18.7-3.6,37.3-7.1,56-10.7c2.8-0.5,4-3.7,3.5-6.2
				c-1.1-6-2.3-12-3.4-18c-0.5-2.8-3.7-4-6.2-3.5c-18.7,3.6-37.3,7.1-56,10.7c-6.3,1.2-3.6,10.8,2.7,9.6c18.7-3.6,37.3-7.1,56-10.7
				c-2.1-1.2-4.1-2.3-6.2-3.5c1.1,6,2.3,12,3.4,18c1.2-2.1,2.3-4.1,3.5-6.2c-18.7,3.6-37.3,7.1-56,10.7c2.1,1.2,4.1,2.3,6.2,3.5
				c-1.1-6-2.3-12-3.4-18C898.8,455.4,889.2,458.1,890.3,464.4z" />
            </g>
        </g>
        <g>
            <polygon class="st0" points="874.4,200.3 793,280.3 805.8,293.2 887.2,213.3 		" />
            <g>
                <path class="st0" d="M870.9,196.8c-23.8,23.3-47.5,46.7-71.3,70c-3.4,3.3-6.8,6.7-10.2,10c-1.9,1.9-1.9,5.2,0,7.1
				c4.3,4.3,8.5,8.6,12.8,13c1.9,1.9,5.1,1.9,7.1,0c23.8-23.3,47.5-46.7,71.3-70c3.4-3.3,6.8-6.7,10.2-10c1.9-1.9,1.9-5.2,0-7.1
				c-4.3-4.3-8.5-8.6-12.8-13c-4.5-4.6-11.6,2.5-7.1,7.1c4.3,4.3,8.5,8.6,12.8,13c0-2.4,0-4.7,0-7.1c-23.8,23.3-47.5,46.7-71.3,70
				c-3.4,3.3-6.8,6.7-10.2,10c2.4,0,4.7,0,7.1,0c-4.3-4.3-8.5-8.6-12.8-13c0,2.4,0,4.7,0,7.1c23.8-23.3,47.5-46.7,71.3-70
				c3.4-3.3,6.8-6.7,10.2-10C882.5,199.3,875.5,192.3,870.9,196.8z" />
            </g>
        </g>
        <g>
            <polygon class="st0" points="671.2,202.7 688.2,209.7 721.6,129.1 704.6,122.1 		" />
            <g>
                <path class="st0" d="M669.9,207.6c5.7,2.3,11.3,4.6,17,7c2.7,1.1,5.2-1.3,6.2-3.5c9.7-23.5,19.5-47,29.2-70.5
				c1.4-3.4,2.8-6.7,4.2-10.1c1.1-2.7-1.3-5.2-3.5-6.2c-5.7-2.3-11.4-4.6-17-7c-2.7-1.1-5.2,1.3-6.2,3.5
				c-9.7,23.5-19.5,47-29.2,70.5c-1.4,3.4-2.8,6.7-4.2,10.1c-2.5,5.9,7.2,8.5,9.6,2.7c9.7-23.5,19.5-47,29.2-70.5
				c1.4-3.4,2.8-6.7,4.2-10.1c-2.1,1.2-4.1,2.3-6.2,3.5c5.7,2.3,11.4,4.6,17,7c-1.2-2.1-2.3-4.1-3.5-6.2
				c-9.7,23.5-19.5,47-29.2,70.5c-1.4,3.4-2.8,6.7-4.2,10.1c2.1-1.2,4.1-2.3,6.2-3.5c-5.7-2.3-11.3-4.6-17-7
				C666.6,195.5,664,205.1,669.9,207.6z" />
            </g>
        </g>
        <g>
            <polygon class="st0" points="736.2,235.5 751.3,245.7 783.3,198.5 768.2,188.1 		" />
            <g>
                <path class="st0" d="M733.7,239.8c5,3.4,10,6.8,15.1,10.2c2.3,1.6,5.4,0.3,6.8-1.8c10.7-15.7,21.3-31.5,32-47.2
				c1.6-2.4,0.3-5.4-1.8-6.8c-5-3.5-10.1-6.9-15.1-10.4c-2.3-1.6-5.4-0.3-6.8,1.8c-10.6,15.8-21.3,31.6-31.9,47.4
				c-3.6,5.3,5.1,10.4,8.6,5c10.6-15.8,21.3-31.6,31.9-47.4c-2.3,0.6-4.6,1.2-6.8,1.8c5,3.5,10.1,6.9,15.1,10.4
				c-0.6-2.3-1.2-4.6-1.8-6.8c-10.7,15.7-21.3,31.5-32,47.2c2.3-0.6,4.6-1.2,6.8-1.8c-5-3.4-10-6.8-15.1-10.2
				C733.4,227.6,728.4,236.2,733.7,239.8z" />
            </g>
        </g>
        <g>
            <rect x="531.9" y="31.3" class="st0" width="18.3" height="16.7" />
            <g>
                <path class="st0" d="M531.9,36.3c6.1,0,12.2,0,18.3,0c-1.7-1.7-3.3-3.3-5-5c0,5.6,0,11.1,0,16.7c1.7-1.7,3.3-3.3,5-5
				c-6.1,0-12.2,0-18.3,0c1.7,1.7,3.3,3.3,5,5c0-5.6,0-11.1,0-16.7c0-6.4-10-6.4-10,0c0,5.6,0,11.1,0,16.7c0,2.7,2.3,5,5,5
				c6.1,0,12.2,0,18.3,0c2.7,0,5-2.3,5-5c0-5.6,0-11.1,0-16.7c0-2.7-2.3-5-5-5c-6.1,0-12.2,0-18.3,0
				C525.4,26.3,525.4,36.3,531.9,36.3z" />
            </g>
        </g>
        <g>
            <polygon class="st0" points="604.2,184.1 622,187.8 633.4,131.9 615.5,128.1 		" />
            <g>
                <path class="st0" d="M602.9,188.9c6,1.2,11.9,2.5,17.9,3.7c2.5,0.5,5.6-0.7,6.2-3.5c3.8-18.7,7.6-37.3,11.3-56
				c0.5-2.5-0.7-5.6-3.5-6.2c-5.9-1.2-11.9-2.5-17.8-3.7c-2.5-0.5-5.6,0.7-6.2,3.5c-3.8,18.6-7.6,37.3-11.4,55.9
				c-1.3,6.3,8.4,9,9.6,2.7c3.8-18.6,7.6-37.3,11.4-55.9c-2.1,1.2-4.1,2.3-6.2,3.5c5.9,1.2,11.9,2.5,17.8,3.7
				c-1.2-2.1-2.3-4.1-3.5-6.2c-3.8,18.7-7.6,37.3-11.3,56c2.1-1.2,4.1-2.3,6.2-3.5c-6-1.2-11.9-2.5-17.9-3.7
				C599.2,177.9,596.6,187.6,602.9,188.9z" />
            </g>
        </g>
        <g>
            <rect x="531.9" y="64.7" class="st0" width="18.3" height="114" />
            <g>
                <path class="st0" d="M531.9,69.7c6.1,0,12.2,0,18.3,0c-1.7-1.7-3.3-3.3-5-5c0,33.3,0,66.5,0,99.8c0,4.7,0,9.5,0,14.2
				c1.7-1.7,3.3-3.3,5-5c-6.1,0-12.2,0-18.3,0c1.7,1.7,3.3,3.3,5,5c0-33.3,0-66.5,0-99.8c0-4.7,0-9.5,0-14.2c0-6.4-10-6.4-10,0
				c0,33.3,0,66.5,0,99.8c0,4.7,0,9.5,0,14.2c0,2.7,2.3,5,5,5c6.1,0,12.2,0,18.3,0c2.7,0,5-2.3,5-5c0-33.3,0-66.5,0-99.8
				c0-4.7,0-9.5,0-14.2c0-2.7-2.3-5-5-5c-6.1,0-12.2,0-18.3,0C525.4,59.7,525.4,69.7,531.9,69.7z" />
            </g>
        </g>
        <g>
            <polygon class="st0" points="211.2,887.5 291.1,806 278.1,793.2 198.2,874.6 		" />
            <g>
                <path class="st0" d="M214.7,891c23.3-23.8,46.7-47.5,70-71.3c3.3-3.4,6.7-6.8,10-10.2c1.9-1.9,1.9-5.2,0-7.1
				c-4.3-4.3-8.6-8.5-13-12.8c-1.9-1.9-5.2-1.9-7.1,0c-23.3,23.8-46.7,47.5-70,71.3c-3.3,3.4-6.7,6.8-10,10.2
				c-1.9,1.9-1.9,5.2,0,7.1c4.3,4.3,8.6,8.5,13,12.8c4.6,4.5,11.7-2.5,7.1-7.1c-4.3-4.3-8.6-8.5-13-12.8c0,2.4,0,4.7,0,7.1
				c23.3-23.8,46.7-47.5,70-71.3c3.3-3.4,6.7-6.8,10-10.2c-2.4,0-4.7,0-7.1,0c4.3,4.3,8.6,8.5,13,12.8c0-2.4,0-4.7,0-7.1
				c-23.3,23.8-46.7,47.5-70,71.3c-3.3,3.4-6.7,6.8-10,10.2C203.1,888.5,210.2,895.6,214.7,891z" />
            </g>
        </g>
        <g>
            <rect x="120.2" y="687.6" transform="matrix(0.9238 -0.3829 0.3829 0.9238 -254.2852 115.8323)" class="st0" width="87.3" height="18.2" />
            <g>
                <path class="st0" d="M206.3,683.6c-23.5,9.7-47,19.5-70.5,29.2c-3.4,1.4-6.7,2.8-10.1,4.2c2.1,1.2,4.1,2.3,6.2,3.5
				c-2.3-5.6-4.7-11.2-7-16.9c-1.2,2.1-2.3,4.1-3.5,6.2c23.5-9.7,47-19.5,70.5-29.2c3.4-1.4,6.7-2.8,10.1-4.2
				c-2.1-1.2-4.1-2.3-6.2-3.5c2.3,5.6,4.7,11.2,7,16.9c2.4,5.9,12.1,3.3,9.6-2.7c-2.3-5.6-4.7-11.2-7-16.9c-0.9-2.2-3.4-4.6-6.2-3.5
				c-23.5,9.7-47,19.5-70.5,29.2c-3.4,1.4-6.7,2.8-10.1,4.2c-2.2,0.9-4.6,3.4-3.5,6.2c2.3,5.6,4.7,11.2,7,16.9
				c0.9,2.2,3.4,4.6,6.2,3.5c23.5-9.7,47-19.5,70.5-29.2c3.4-1.4,6.7-2.8,10.1-4.2C214.8,690.8,212.2,681.1,206.3,683.6z" />
            </g>
        </g>
        <g>
            <polygon class="st0" points="129.7,633.8 185.7,622.4 181.9,604.4 126,615.9 		" />
            <g>
                <path class="st0" d="M131.1,638.6c18.7-3.8,37.3-7.6,56-11.4c2.8-0.6,4-3.7,3.5-6.2c-1.2-6-2.5-12-3.7-18c-0.6-2.8-3.6-4-6.2-3.5
				c-18.6,3.8-37.3,7.7-55.9,11.5c-2.8,0.6-4,3.6-3.5,6.2c1.2,5.9,2.5,11.9,3.7,17.8c1.3,6.3,11,3.6,9.6-2.7
				c-1.2-5.9-2.5-11.9-3.7-17.8c-1.2,2.1-2.3,4.1-3.5,6.2c18.6-3.8,37.3-7.7,55.9-11.5c-2.1-1.2-4.1-2.3-6.2-3.5
				c1.2,6,2.5,12,3.7,18c1.2-2.1,2.3-4.1,3.5-6.2c-18.7,3.8-37.3,7.6-56,11.4C122.1,630.2,124.8,639.9,131.1,638.6z" />
            </g>
        </g>
        <g>
            <polygon class="st0" points="186.3,886.6 174.7,898.5 187.8,911.3 199.5,899.5 		" />
            <g>
                <path class="st0" d="M182.8,883.1c-3.9,3.9-7.8,7.9-11.7,11.8c-1.9,1.9-1.9,5.2,0,7.1c4.4,4.3,8.8,8.5,13.1,12.8
				c1.9,1.9,5.2,1.9,7.1,0c3.9-3.9,7.8-7.9,11.7-11.8c1.9-1.9,1.9-5.2,0-7.1c-4.4-4.3-8.8-8.5-13.1-12.8c-4.6-4.5-11.7,2.6-7.1,7.1
				c4.4,4.3,8.8,8.5,13.1,12.8c0-2.4,0-4.7,0-7.1c-3.9,3.9-7.8,7.9-11.7,11.8c2.4,0,4.7,0,7.1,0c-4.4-4.3-8.8-8.5-13.1-12.8
				c0,2.4,0,4.7,0,7.1c3.9-3.9,7.8-7.9,11.7-11.8C194.4,885.6,187.3,878.5,182.8,883.1z" />
            </g>
        </g>
        <g>
            <polygon class="st0" points="196.4,783.6 243.6,751.7 233.4,736.6 186,768.6 		" />
            <g>
                <path class="st0" d="M198.9,788c15.7-10.6,31.5-21.3,47.2-31.9c2.1-1.4,3.4-4.5,1.8-6.8c-3.4-5-6.8-10.1-10.2-15.1
				c-1.4-2.1-4.5-3.4-6.8-1.8c-15.8,10.7-31.6,21.3-47.4,32c-2.1,1.4-3.4,4.5-1.8,6.8c3.5,5,6.9,10.1,10.4,15.1
				c3.6,5.3,12.3,0.3,8.6-5c-3.5-5-6.9-10.1-10.4-15.1c-0.6,2.3-1.2,4.6-1.8,6.8c15.8-10.7,31.6-21.3,47.4-32
				c-2.3-0.6-4.6-1.2-6.8-1.8c3.4,5,6.8,10.1,10.2,15.1c0.6-2.3,1.2-4.6,1.8-6.8c-15.7,10.6-31.5,21.3-47.2,31.9
				C188.6,782.9,193.6,791.6,198.9,788z" />
            </g>
        </g>
        <g>
            <rect x="29.2" y="532.2" class="st0" width="16.7" height="18.3" />
            <g>
                <path class="st0" d="M34.2,550.6c0-6.1,0-12.2,0-18.3c-1.7,1.7-3.3,3.3-5,5c5.6,0,11.1,0,16.7,0c-1.7-1.7-3.3-3.3-5-5
				c0,6.1,0,12.2,0,18.3c1.7-1.7,3.3-3.3,5-5c-5.6,0-11.1,0-16.7,0c-6.4,0-6.4,10,0,10c5.6,0,11.1,0,16.7,0c2.7,0,5-2.3,5-5
				c0-6.1,0-12.2,0-18.3c0-2.7-2.3-5-5-5c-5.6,0-11.1,0-16.7,0c-2.7,0-5,2.3-5,5c0,6.1,0,12.2,0,18.3C24.2,557,34.2,557,34.2,550.6z
				" />
            </g>
        </g>
        <g>
            <rect x="62.6" y="532.2" class="st0" width="114" height="18.3" />
            <g>
                <path class="st0" d="M67.6,550.6c0-6.1,0-12.2,0-18.3c-1.7,1.7-3.3,3.3-5,5c33.3,0,66.5,0,99.8,0c4.7,0,9.5,0,14.2,0
				c-1.7-1.7-3.3-3.3-5-5c0,6.1,0,12.2,0,18.3c1.7-1.7,3.3-3.3,5-5c-33.3,0-66.5,0-99.8,0c-4.7,0-9.5,0-14.2,0c-6.4,0-6.4,10,0,10
				c33.3,0,66.5,0,99.8,0c4.7,0,9.5,0,14.2,0c2.7,0,5-2.3,5-5c0-6.1,0-12.2,0-18.3c0-2.7-2.3-5-5-5c-33.3,0-66.5,0-99.8,0
				c-4.7,0-9.5,0-14.2,0c-2.7,0-5,2.3-5,5c0,6.1,0,12.2,0,18.3C57.6,557,67.6,557,67.6,550.6z" />
            </g>
        </g>
        <g>
            <polygon class="st0" points="874.9,874.6 795,793.2 782,806 862,887.5 		" />
            <g>
                <path class="st0" d="M878.5,871.1c-23.3-23.8-46.7-47.5-70-71.3c-3.3-3.4-6.7-6.8-10-10.2c-1.9-1.9-5.2-1.9-7.1,0
				c-4.3,4.3-8.6,8.5-13,12.8c-1.9,1.9-1.9,5.1,0,7.1c23.3,23.8,46.7,47.5,70,71.3c3.3,3.4,6.7,6.8,10,10.2c1.9,1.9,5.2,1.9,7.1,0
				c4.3-4.3,8.6-8.5,13-12.8c4.6-4.5-2.5-11.6-7.1-7.1c-4.3,4.3-8.6,8.5-13,12.8c2.4,0,4.7,0,7.1,0c-23.3-23.8-46.7-47.5-70-71.3
				c-3.3-3.4-6.7-6.8-10-10.2c0,2.4,0,4.7,0,7.1c4.3-4.3,8.6-8.5,13-12.8c-2.4,0-4.7,0-7.1,0c23.3,23.8,46.7,47.5,70,71.3
				c3.3,3.4,6.7,6.8,10,10.2C875.9,882.8,883,875.7,878.5,871.1z" />
            </g>
        </g>
        <g>
            <rect x="900.3" y="653.1" transform="matrix(0.3829 -0.9238 0.9238 0.3829 -82.504 1270.0416)" class="st0" width="18.2" height="87.3" />
            <g>
                <path class="st0" d="M871.2,676.4c23.5,9.7,47,19.5,70.5,29.2c3.4,1.4,6.7,2.8,10.1,4.2c-1.2-2.1-2.3-4.1-3.5-6.2
				c-2.3,5.6-4.7,11.2-7,16.9c2.1-1.2,4.1-2.3,6.2-3.5c-23.5-9.7-47-19.5-70.5-29.2c-3.4-1.4-6.7-2.8-10.1-4.2
				c1.2,2.1,2.3,4.1,3.5,6.2c2.3-5.6,4.7-11.2,7-16.9c2.5-5.9-7.2-8.5-9.6-2.7c-2.3,5.6-4.7,11.2-7,16.9c-1.1,2.7,1.3,5.2,3.5,6.2
				c23.5,9.7,47,19.5,70.5,29.2c3.4,1.4,6.7,2.8,10.1,4.2c2.7,1.1,5.2-1.3,6.2-3.5c2.3-5.6,4.7-11.2,7-16.9c1.1-2.7-1.3-5.2-3.5-6.2
				c-23.5-9.7-47-19.5-70.5-29.2c-3.4-1.4-6.7-2.8-10.1-4.2C867.9,664.3,865.3,674,871.2,676.4z" />
            </g>
        </g>
        <g>
            <polygon class="st0" points="947.1,615.9 891.2,604.4 887.4,622.4 943.4,633.8 		" />
            <g>
                <path class="st0" d="M948.4,611.1c-18.6-3.8-37.3-7.7-55.9-11.5c-2.5-0.5-5.6,0.7-6.2,3.5c-1.2,6-2.5,12-3.7,18
				c-0.5,2.5,0.7,5.6,3.5,6.2c18.7,3.8,37.3,7.6,56,11.4c2.5,0.5,5.6-0.7,6.2-3.5c1.2-5.9,2.5-11.9,3.7-17.8c1.3-6.3-8.3-9-9.6-2.7
				c-1.2,5.9-2.5,11.9-3.7,17.8c2.1-1.2,4.1-2.3,6.2-3.5c-18.7-3.8-37.3-7.6-56-11.4c1.2,2.1,2.3,4.1,3.5,6.2c1.2-6,2.5-12,3.7-18
				c-2.1,1.2-4.1,2.3-6.2,3.5c18.6,3.8,37.3,7.7,55.9,11.5C952.1,622.1,954.8,612.4,948.4,611.1z" />
            </g>
        </g>
        <g>
            <polygon class="st0" points="873.6,899.5 885.3,911.3 898.4,898.5 886.8,886.6 		" />
            <g>
                <path class="st0" d="M870.1,903c3.9,3.9,7.8,7.9,11.7,11.8c1.9,1.9,5.1,1.9,7.1,0c4.4-4.3,8.8-8.5,13.1-12.8
				c1.9-1.9,1.9-5.2,0-7.1c-3.9-3.9-7.8-7.9-11.7-11.8c-1.9-1.9-5.1-1.9-7.1,0c-4.4,4.3-8.8,8.5-13.1,12.8
				c-4.6,4.5,2.5,11.6,7.1,7.1c4.4-4.3,8.8-8.5,13.1-12.8c-2.4,0-4.7,0-7.1,0c3.9,3.9,7.8,7.9,11.7,11.8c0-2.4,0-4.7,0-7.1
				c-4.4,4.3-8.8,8.5-13.1,12.8c2.4,0,4.7,0,7.1,0c-3.9-3.9-7.8-7.9-11.7-11.8C872.6,891.3,865.6,898.4,870.1,903z" />
            </g>
        </g>
        <g>
            <polygon class="st0" points="887.1,768.6 839.7,736.6 829.5,751.7 876.7,783.6 		" />
            <g>
                <path class="st0" d="M889.6,764.2c-15.8-10.7-31.6-21.3-47.4-32c-2.3-1.6-5.4-0.3-6.8,1.8c-3.4,5-6.8,10.1-10.2,15.1
				c-1.6,2.3-0.3,5.4,1.8,6.8c15.7,10.6,31.5,21.3,47.2,31.9c2.4,1.6,5.4,0.3,6.8-1.8c3.5-5,6.9-10.1,10.4-15.1
				c3.7-5.3-5-10.3-8.6-5c-3.5,5-6.9,10.1-10.4,15.1c2.3-0.6,4.6-1.2,6.8-1.8c-15.7-10.6-31.5-21.3-47.2-31.9
				c0.6,2.3,1.2,4.6,1.8,6.8c3.4-5,6.8-10.1,10.2-15.1c-2.3,0.6-4.6,1.2-6.8,1.8c15.8,10.7,31.6,21.3,47.4,32
				C889.9,776.5,894.9,767.8,889.6,764.2z" />
            </g>
        </g>
        <g>
            <rect x="1027.2" y="532.2" class="st0" width="16.7" height="18.3" />
            <g>
                <path class="st0" d="M1032.2,550.6c0-6.1,0-12.2,0-18.3c-1.7,1.7-3.3,3.3-5,5c5.6,0,11.1,0,16.7,0c-1.7-1.7-3.3-3.3-5-5
				c0,6.1,0,12.2,0,18.3c1.7-1.7,3.3-3.3,5-5c-5.6,0-11.1,0-16.7,0c-6.4,0-6.4,10,0,10c5.6,0,11.1,0,16.7,0c2.7,0,5-2.3,5-5
				c0-6.1,0-12.2,0-18.3c0-2.7-2.3-5-5-5c-5.6,0-11.1,0-16.7,0c-2.7,0-5,2.3-5,5c0,6.1,0,12.2,0,18.3
				C1022.2,557,1032.2,557,1032.2,550.6z" />
            </g>
        </g>
        <g>
            <rect x="896.5" y="532.2" class="st0" width="114" height="18.3" />
            <g>
                <path class="st0" d="M901.5,550.6c0-6.1,0-12.2,0-18.3c-1.7,1.7-3.3,3.3-5,5c33.3,0,66.5,0,99.8,0c4.7,0,9.5,0,14.2,0
				c-1.7-1.7-3.3-3.3-5-5c0,6.1,0,12.2,0,18.3c1.7-1.7,3.3-3.3,5-5c-33.3,0-66.5,0-99.8,0c-4.7,0-9.5,0-14.2,0c-6.4,0-6.4,10,0,10
				c33.3,0,66.5,0,99.8,0c4.7,0,9.5,0,14.2,0c2.7,0,5-2.3,5-5c0-6.1,0-12.2,0-18.3c0-2.7-2.3-5-5-5c-33.3,0-66.5,0-99.8,0
				c-4.7,0-9.5,0-14.2,0c-2.7,0-5,2.3-5,5c0,6.1,0,12.2,0,18.3C891.5,557,901.5,557,901.5,550.6z" />
            </g>
        </g>
    </g>
</svg>
